<?xml version="1.0" encoding="UTF-8"?>
<svg id="_图层_2" data-name="图层 2" xmlns="http://www.w3.org/2000/svg" viewBox="0 0 101.16 100">
  <defs>
    <style>
      .cls-1 {
        fill: #fff;
      }
    </style>
  </defs>
  <g id="_1" data-name="1">
    <g>
      <rect class="cls-1" width="101.16" height="100"/>
      <g id="_514_Business_Executive_Job_Man_Selection" data-name="514, Business, Executive, Job, Man, Selection">
        <g>
          <path d="M50.68,44.5c-1.92,0-3.54-.9-4.45-1.6-.51-.5-.61-1.2-.1-1.8.51-.5,1.21-.6,1.82-.1.3.2,2.63,2.2,5.36,0,.51-.4,1.32-.4,1.82.2.41.5.41,1.3-.2,1.8-1.42,1-2.93,1.5-4.25,1.5Z"/>
          <path d="M72.13,78.8H28.63c-.71,0-1.31-.6-1.31-1.3v-14.6c0-3.2,2.02-6,5.16-7l5.77-1.9,2.93-1.1c.3-.1.71-.1,1.01,0,.3.1.51.4.71.7l3.24,9.6,3.54-3.7c.2-.2.61-.4.91-.4h0c.3,0,.71.1.91.4l3.64,3.7,3.04-9.6c.1-.3.3-.6.61-.7.3-.2.71-.2,1.01-.1l8.6,3c3.04,1.1,4.96,3.9,4.96,7v14.6c0,.8-.61,1.4-1.21,1.4ZM29.94,76.3h40.87v-13.4c0-2.1-1.31-3.9-3.34-4.6l-7.38-2.6-3.24,10.3c-.1.4-.51.7-.91.8-.4.1-.91,0-1.21-.3l-4.25-4.3-4.05,4.3c-.3.3-.71.5-1.21.4-.4-.1-.81-.4-.91-.8l-3.54-10.3-1.72.7h-.1l-5.77,1.9c-2.02.7-3.44,2.6-3.44,4.7l.2,13.2h0Z"/>
          <path d="M65.05,78.8h-29.44c-.71,0-1.31-.6-1.31-1.3v-13.4c0-.7.61-1.3,1.31-1.3s1.31.6,1.31,1.3v12.2h26.91v-12.2c0-.7.61-1.3,1.21-1.3.71,0,1.32.6,1.32,1.3v13.4c0,.7-.61,1.3-1.32,1.3Z"/>
          <path d="M55.64,66.9c-.3,0-.71-.1-.91-.4l-5.16-5.2c-.4-.4-.51-1.1-.1-1.6l6.47-9.1c.2-.3.61-.5,1.01-.5s.81.1,1.01.4l2.33,2.7c.3.3.41.8.2,1.2l-3.64,11.6c-.1.4-.51.7-.91.8-.1,0-.2.1-.3.1ZM52.1,60.3l2.93,3,2.83-8.9-.81-1-4.96,6.9Z"/>
          <path d="M45.52,66.9h-.3c-.4-.1-.81-.4-.91-.8l-3.95-11.6c-.1-.4-.1-.8.2-1.2l2.12-2.7c.2-.3.61-.5,1.01-.5h0c.4,0,.81.2,1.01.5l6.78,9.1c.4.5.3,1.2-.1,1.6l-4.96,5.2c-.2.2-.61.4-.91.4ZM42.99,54.3l3.03,9,2.83-2.9-5.16-6.9-.71.8Z"/>
          <path d="M50.68,50.5c-3.54,0-6.78-2.4-9.1-6.7-1.82-3.3-2.93-7.6-2.93-11,0-.8.1-1.7.3-2.5.1-.4.4-.8.81-.9.4-.1.91-.1,1.21.2.3.3.91.6,1.62.6h11.94c.61,0,1.11-.3,1.42-.9.3-.6,1.01-.9,1.72-.6l4.05,1.9c.5.1.91.4,1.01.9v1.3c0,3.4-1.11,7.7-2.93,11-2.33,4.3-5.56,6.7-9.1,6.7ZM41.07,32.4v.4c0,3,1.01,6.9,2.63,9.8,1.32,2.4,3.64,5.3,6.88,5.3s5.56-2.9,6.88-5.3c1.62-3,2.63-6.8,2.63-9.8v-.1l-2.83-1.4c-.81.8-1.82,1.3-2.93,1.3h-11.94c-.4,0-.91-.1-1.31-.2Z"/>
          <path d="M61.3,33.1c-.2,0-.4,0-.51-.1l-3.44-1.6c-.81.8-1.82,1.3-2.93,1.3h-12.04c-1.11,0-2.23-.4-3.14-1.1-1.52-1.1-2.43-3-2.43-4.8v-4.2c0-.7.61-1.3,1.32-1.3h15.88c1.82,0,3.14,1.3,3.84,2.5.1.2.2.3.3.4l4.15,3.7c.3.2.4.6.4.9l-.1,3c0,.4-.2.8-.61,1-.2.2-.51.3-.71.3ZM39.45,23.8v3c0,1,.61,2.1,1.42,2.8.3.3.91.6,1.62.6h11.94c.61,0,1.11-.3,1.42-.9.3-.6,1.01-.9,1.72-.6l2.63,1.3v-.5l-3.95-3.6c-.2-.1-.3-.3-.3-.5v-.1c0-.1-.1-.1-.1-.2-.3-.6-1.01-1.3-1.62-1.3h-14.77Z"/>
          <path d="M55.23,37.6h-1.42c-.71,0-1.32-.6-1.32-1.3s.61-1.3,1.32-1.3h1.42c.71,0,1.32.6,1.32,1.3s-.61,1.3-1.32,1.3Z"/>
          <path d="M46.84,37.6h-1.42c-.71,0-1.31-.6-1.31-1.3s.61-1.3,1.31-1.3h1.42c.71,0,1.32.6,1.32,1.3s-.61,1.3-1.32,1.3Z"/>
          <path d="M50.58,78.8c-.3,0-.61-.1-.91-.4l-3.84-3.8c-.3-.3-.4-.8-.3-1.2l3.84-12.5c.2-.7.91-1,1.62-.8.71.2,1.01.9.81,1.6l-3.54,11.8,3.24,3.2c.51.5.51,1.3,0,1.8-.3.1-.61.3-.91.3Z"/>
          <path d="M50.58,78.8c-.3,0-.61-.1-.91-.4-.51-.5-.51-1.3,0-1.8l3.24-3.2-3.54-11.8c-.2-.7.2-1.4.81-1.6.71-.2,1.42.2,1.62.8l3.84,12.5c.1.4,0,.9-.3,1.2l-3.84,3.8c-.3.3-.61.5-.91.5Z"/>
        </g>
      </g>
    </g>
  </g>
</svg>