<?xml version="1.0" standalone="no"?><!DOCTYPE svg PUBLIC "-//W3C//DTD SVG 1.1//EN" "http://www.w3.org/Graphics/SVG/1.1/DTD/svg11.dtd"><svg t="1747362185721" class="icon" viewBox="0 0 1024 1024" version="1.1" xmlns="http://www.w3.org/2000/svg" p-id="1991" xmlns:xlink="http://www.w3.org/1999/xlink" width="128" height="128"><path d="M344 512m-48 0a48 48 0 1 0 96 0 48 48 0 1 0-96 0Z" fill="#8a8a8a" p-id="1992"></path><path d="M512 512m-48 0a48 48 0 1 0 96 0 48 48 0 1 0-96 0Z" fill="#8a8a8a" p-id="1993"></path><path d="M680 512m-48 0a48 48 0 1 0 96 0 48 48 0 1 0-96 0Z" fill="#8a8a8a" p-id="1994"></path><path d="M512 912c-220.8 0-400-179.2-400-400s179.2-400 400-400 400 179.2 400 400-179.2 400-400 400z m0-752c-194.4 0-352 157.6-352 352s157.6 352 352 352 352-157.6 352-352-157.6-352-352-352z" fill="#8a8a8a" p-id="1995"></path></svg>